<?xml version="1.0" encoding="UTF-8"?>
<svg version="1.1" xmlns="http://www.w3.org/2000/svg" width="290" height="50">
<path d="M0 0 C6.4094547 3.95179887 11.45628348 10.28688288 13.5 17.5 C14.55930341 25.89111128 13.47860942 32.57063737 8.5 39.5 C3.62970106 44.79252244 -0.86310382 48.09373018 -8.13671875 48.90625 C-15.79836501 49.20121867 -21.95923097 49.00593546 -28.44140625 44.42578125 C-32.94062717 40.21683264 -37.27135949 34.56603177 -37.73828125 28.3046875 C-37.91399528 19.00109193 -37.33331757 12.93857824 -31.125 5.75 C-22.62450236 -1.53614083 -10.77551466 -4.82454009 0 0 Z M-27.06640625 10.21875 C-31.40141063 16.04815759 -32.26615469 21.31729978 -31.5 28.5 C-29.55715472 34.69809881 -26.25284262 38.24338875 -20.70703125 41.578125 C-15.78395002 43.63449167 -9.38343416 43.41603684 -4.3359375 41.8125 C0.88242946 39.05389191 4.26729664 34.96540672 6.875 29.75 C8.01249495 23.83502625 7.55586892 18.57263158 4.8125 13.1875 C0.95238644 8.70142208 -2.74511461 4.87002909 -8.91796875 4.26171875 C-16.11987954 4.06871973 -22.00662835 4.666874 -27.06640625 10.21875 Z " fill="#F7F4FD" transform="translate(37.5,1.5)"/>
<path d="M0 0 C3.09375 -0.020625 6.1875 -0.04125 9.375 -0.0625 C10.34872559 -0.071604 11.32245117 -0.08070801 12.32568359 -0.09008789 C13.47544678 -0.09383423 13.47544678 -0.09383423 14.6484375 -0.09765625 C15.43395996 -0.10289307 16.21948242 -0.10812988 17.02880859 -0.11352539 C19 0 19 0 21 1 C21.66 0.67 22.32 0.34 23 0 C30.12513336 -0.57460753 30.12513336 -0.57460753 33.2421875 1.47265625 C35.81627552 5.17362281 35.43934072 8.35875169 35.25 12.75 C35.23195312 13.54277344 35.21390625 14.33554687 35.1953125 15.15234375 C35.14833082 17.10208348 35.07659044 19.05119878 35 21 C32.03 21.33 29.06 21.66 26 22 C25.67 17.05 25.34 12.1 25 7 C24.34 7 23.68 7 23 7 C22.67 11.95 22.34 16.9 22 22 C19.03 21.67 16.06 21.34 13 21 C12.67 16.38 12.34 11.76 12 7 C11.34 7 10.68 7 10 7 C9.67 11.62 9.34 16.24 9 21 C6.03 21 3.06 21 0 21 C0 14.07 0 7.14 0 0 Z " fill="#FCFBFE" transform="translate(122,13)"/>
<path d="M0 0 C6.33333333 0 12.66666667 0 19 0 C19.65097656 -0.03480469 20.30195312 -0.06960938 20.97265625 -0.10546875 C22.98053218 -0.18428257 24.99285224 -0.09557846 27 0 C29.61514428 3.92271643 28.84728768 6.60809597 28 11 C27.39303927 13.68796895 26.71328378 16.3370739 26 19 C23.69 19 21.38 19 19 19 C19.14084796 17.20793453 19.28783701 15.41635083 19.4375 13.625 C19.51871094 12.62726562 19.59992187 11.62953125 19.68359375 10.6015625 C20 8 20 8 21 6 C20.01 6 19.02 6 18 6 C17.86722656 6.85464844 17.73445313 7.70929687 17.59765625 8.58984375 C17.33275391 10.24693359 17.33275391 10.24693359 17.0625 11.9375 C16.80146484 13.59072266 16.80146484 13.59072266 16.53515625 15.27734375 C16 18 16 18 15 19 C12.66702567 19.04092937 10.33294775 19.04241723 8 19 C8.14148989 17.3954444 8.28835686 15.79136233 8.4375 14.1875 C8.51871094 13.29417969 8.59992187 12.40085937 8.68359375 11.48046875 C9 9 9 9 10 6 C6.83111044 7.65017477 6.83111044 7.65017477 6.3046875 10.34765625 C6.16289062 11.24355469 6.02109375 12.13945312 5.875 13.0625 C5.0806175 17.9193825 5.0806175 17.9193825 4 19 C1.66702567 19.04092937 -0.66705225 19.04241723 -3 19 C-2.48446121 12.50149789 -1.53332291 6.33773468 0 0 Z " fill="#F6F2FC" transform="translate(13,15)"/>
<path d="M0 0 C1.35421764 0.01720422 2.70840241 0.03757796 4.0625 0.0625 C6.71455732 0.0625 9.3474556 -0.14711673 11.9921875 -0.328125 C15.20181914 0.27746588 16.20514534 1.38790928 18.0625 4.0625 C18.54165789 6.99706265 18.44026691 9.84929059 18.3125 12.8125 C18.29445313 13.60527344 18.27640625 14.39804687 18.2578125 15.21484375 C18.21083082 17.16458348 18.13909044 19.11369878 18.0625 21.0625 C15.0925 21.0625 12.1225 21.0625 9.0625 21.0625 C8.7325 16.4425 8.4025 11.8225 8.0625 7.0625 C7.4025 7.0625 6.7425 7.0625 6.0625 7.0625 C5.7325 11.6825 5.4025 16.3025 5.0625 21.0625 C1.7625 21.0625 -1.5375 21.0625 -4.9375 21.0625 C-4.96433436 17.74994674 -4.9842578 14.43760817 -5 11.125 C-5.00837891 10.17947266 -5.01675781 9.23394531 -5.02539062 8.25976562 C-5.02861328 7.36064453 -5.03183594 6.46152344 -5.03515625 5.53515625 C-5.04039307 4.70250244 -5.04562988 3.86984863 -5.05102539 3.01196289 C-4.8377095 -0.65110673 -3.84582093 0.06104478 0 0 Z " fill="#F3F2FE" transform="translate(60.9375,12.9375)"/>
<path d="M0 0 C1.28197266 -0.03867188 1.28197266 -0.03867188 2.58984375 -0.078125 C5.58474105 0.31930213 6.89498006 1.17461178 9.0625 3.25 C10.24945553 6.81086658 10.41345418 10.22331024 10.625 13.9375 C10.66818359 14.63939453 10.71136719 15.34128906 10.75585938 16.06445312 C10.8616736 17.79275206 10.96256581 19.5213511 11.0625 21.25 C8.44096304 22.56076848 6.88794191 22.11566747 4 21.75 C2.35877854 21.54278696 0.71264946 21.36641266 -0.9375 21.25 C-1.2675 21.58 -1.5975 21.91 -1.9375 22.25 C-7.13927384 22.70232816 -7.13927384 22.70232816 -9.8125 21.1875 C-11.60580867 18.09902396 -11.36591969 15.73856031 -10.9375 12.25 C-8.9375 9.8125 -8.9375 9.8125 -6.9375 8.25 C-7.5975 7.26 -8.2575 6.27 -8.9375 5.25 C-8.75 3.125 -8.75 3.125 -7.9375 1.25 C-5.04829306 0.28693102 -3.01502119 0.0544064 0 0 Z M-2.9375 5.25 C-3.5975 5.91 -4.2575 6.57 -4.9375 7.25 C-3.2875 6.92 -1.6375 6.59 0.0625 6.25 C-0.9275 5.92 -1.9175 5.59 -2.9375 5.25 Z M0.0625 10.25 C-0.9275 11.24 -1.9175 12.23 -2.9375 13.25 C-2.6075 14.24 -2.2775 15.23 -1.9375 16.25 C-0.9475 15.26 0.0425 14.27 1.0625 13.25 C0.7325 12.26 0.4025 11.27 0.0625 10.25 Z " fill="#F6F4FC" transform="translate(170.9375,12.75)"/>
<path d="M0 0 C3.8459751 2.64410788 4.81354872 4.20092308 5.875 8.75 C5.91625 9.8225 5.9575 10.895 6 12 C5 13 5 13 2.71484375 13.09765625 C1.34005859 13.08025391 1.34005859 13.08025391 -0.0625 13.0625 C-0.98160156 13.05347656 -1.90070313 13.04445313 -2.84765625 13.03515625 C-3.55792969 13.02355469 -4.26820312 13.01195312 -5 13 C-4.67 13.66 -4.34 14.32 -4 15 C-1.36 15 1.28 15 4 15 C4.33 16.65 4.66 18.3 5 20 C0.65379916 22.4330876 -3.1025629 22.92187051 -8 22 C-11.66168015 20.15217625 -14.2876027 17.88381348 -15.7578125 13.99609375 C-16.35298676 10.65931888 -16.12534363 8.2968665 -14.8125 5.1875 C-10.50964863 -0.00559648 -6.69592587 -1.25324816 0 0 Z M-5 4 C-5.33 5.32 -5.66 6.64 -6 8 C-4.68 8 -3.36 8 -2 8 C-2.66 6.68 -3.32 5.36 -4 4 C-4.33 4 -4.66 4 -5 4 Z " fill="#F6F4FE" transform="translate(96,13)"/>
<path d="M0 0 C3.51688967 2.49113018 4.73550804 4.03649358 5.875 8.1875 C6 11 6 11 5 13 C1.37 13 -2.26 13 -6 13 C-5.67 13.66 -5.34 14.32 -5 15 C-2.03 15 0.94 15 4 15 C4.33 16.65 4.66 18.3 5 20 C0.767991 22.1160045 -3.33701079 22.74826833 -8 22 C-11.13180809 20.37609951 -13.24339744 18.99733974 -15.375 16.1875 C-16.48486662 12.30296684 -16.49359269 8.61539426 -15.3125 4.75 C-11.47041256 -0.37278325 -6.00225571 -1.15260708 0 0 Z M-5 4 C-5.33 5.32 -5.66 6.64 -6 8 C-5.01 8 -4.02 8 -3 8 C-3.33 6.68 -3.66 5.36 -4 4 C-4.33 4 -4.66 4 -5 4 Z " fill="#F5F3FD" transform="translate(235,13)"/>
<path d="M0 0 C0 1.98 0 3.96 0 6 C1.65 6 3.3 6 5 6 C5 7.65 5 9.3 5 11 C3.35 11 1.7 11 0 11 C0.33 14.63 0.66 18.26 1 22 C2.65 22.33 4.3 22.66 6 23 C6 24.32 6 25.64 6 27 C2.37296974 28.20901009 -1.24017363 28.78660475 -5 28 C-7.23828125 26.40234375 -7.23828125 26.40234375 -9 24 C-9.390625 20.765625 -9.390625 20.765625 -9.25 17.25 C-9.21390625 16.07953125 -9.1778125 14.9090625 -9.140625 13.703125 C-9.09421875 12.81109375 -9.0478125 11.9190625 -9 11 C-9.99 11 -10.98 11 -12 11 C-12 9.35 -12 7.7 -12 6 C-11.01 6 -10.02 6 -9 6 C-9 4.35 -9 2.7 -9 1 C-2.25 0 -2.25 0 0 0 Z " fill="#F8F4FD" transform="translate(212,7)"/>
<path d="M0 0 C0 1.98 0 3.96 0 6 C1.65 6 3.3 6 5 6 C5 7.65 5 9.3 5 11 C3.35 11 1.7 11 0 11 C0.33 14.63 0.66 18.26 1 22 C2.32 22 3.64 22 5 22 C5.33 23.65 5.66 25.3 6 27 C2.37296974 28.20901009 -1.24017363 28.78660475 -5 28 C-7.23828125 26.40234375 -7.23828125 26.40234375 -9 24 C-9.390625 20.765625 -9.390625 20.765625 -9.25 17.25 C-9.21390625 16.07953125 -9.1778125 14.9090625 -9.140625 13.703125 C-9.09421875 12.81109375 -9.0478125 11.9190625 -9 11 C-9.99 11 -10.98 11 -12 11 C-12 9.35 -12 7.7 -12 6 C-11.01 6 -10.02 6 -9 6 C-9 4.35 -9 2.7 -9 1 C-2.25 0 -2.25 0 0 0 Z " fill="#FAF6FD" transform="translate(194,7)"/>
<path d="M0 0 C0 1.98 0 3.96 0 6 C1.65 6 3.3 6 5 6 C5 7.65 5 9.3 5 11 C3.35 11 1.7 11 0 11 C0.33 14.3 0.66 17.6 1 21 C2.32 21.33 3.64 21.66 5 22 C5.33 23.65 5.66 25.3 6 27 C2.37296974 28.20901009 -1.24017363 28.78660475 -5 28 C-7.23828125 26.40234375 -7.23828125 26.40234375 -9 24 C-9.390625 20.765625 -9.390625 20.765625 -9.25 17.25 C-9.21390625 16.07953125 -9.1778125 14.9090625 -9.140625 13.703125 C-9.09421875 12.81109375 -9.0478125 11.9190625 -9 11 C-9.99 11 -10.98 11 -12 11 C-12 9.35 -12 7.7 -12 6 C-11.01 6 -10.02 6 -9 6 C-9 4.35 -9 2.7 -9 1 C-2.25 0 -2.25 0 0 0 Z " fill="#FAF6FE" transform="translate(114,7)"/>
<path d="M0 0 C1.16015625 0.02320313 1.16015625 0.02320313 2.34375 0.046875 C4.5 0.25 4.5 0.25 7.5 1.25 C6.84 2.9 6.18 4.55 5.5 6.25 C4.18 5.92 2.86 5.59 1.5 5.25 C1.933125 5.68570312 2.36625 6.12140625 2.8125 6.5703125 C5.5597531 9.50834707 7.32570069 11.44188504 8.1875 15.4375 C7.5 18.25 7.5 18.25 5.5 20.625 C1.41938255 22.83533445 -0.88998859 22.69613014 -5.5 22.25 C-6.49 21.59 -7.48 20.93 -8.5 20.25 C-8.17 18.6 -7.84 16.95 -7.5 15.25 C-4.53 15.745 -4.53 15.745 -1.5 16.25 C-1.5 15.59 -1.5 14.93 -1.5 14.25 C-2.098125 14.0025 -2.69625 13.755 -3.3125 13.5 C-5.89231944 12.02581746 -7.0815864 10.86286717 -8.5 8.25 C-8.36235678 5.42831405 -7.96483177 3.84743716 -6.2265625 1.61328125 C-4.01195576 -0.1353562 -2.78948473 -0.09298282 0 0 Z " fill="#F7F3FC" transform="translate(268.5,12.75)"/>
<path d="M0 0 C1.48831242 0.00667405 2.97660807 0.01863442 4.46484375 0.03515625 C5.22345703 0.03966797 5.98207031 0.04417969 6.76367188 0.04882812 C8.64326246 0.06064945 10.52281274 0.07858547 12.40234375 0.09765625 C13.48046875 3.82421875 13.48046875 3.82421875 12.77734375 6.28515625 C11.40234375 8.09765625 11.40234375 8.09765625 6.40234375 9.09765625 C6.07234375 13.38765625 5.74234375 17.67765625 5.40234375 22.09765625 C2.10234375 21.76765625 -1.19765625 21.43765625 -4.59765625 21.09765625 C-4.62449061 17.78510299 -4.64441405 14.47276442 -4.66015625 11.16015625 C-4.66853516 10.21462891 -4.67691406 9.26910156 -4.68554688 8.29492188 C-4.68876953 7.39580078 -4.69199219 6.49667969 -4.6953125 5.5703125 C-4.70054932 4.73765869 -4.70578613 3.90500488 -4.71118164 3.04711914 C-4.50650462 -0.46760339 -3.651354 0.09911384 0 0 Z " fill="#F6EEFC" transform="translate(246.59765625,12.90234375)"/>
<path d="M0 0 C3.66666667 0 7.33333333 0 11 0 C11 2.64 11 5.28 11 8 C9.88625 7.814375 8.7725 7.62875 7.625 7.4375 C4.17431139 6.68319343 4.17431139 6.68319343 2 8 C1.34 5.36 0.68 2.72 0 0 Z " fill="#E8E3F8" transform="translate(279,7)"/>
<path d="M0 0 C2.31 0 4.62 0 7 0 C6.34 0.66 5.68 1.32 5 2 C4.28591666 3.98356483 3.61382258 5.98315437 3 8 C2.67 8 2.34 8 2 8 C1.34 5.36 0.68 2.72 0 0 Z " fill="#D6D0E9" transform="translate(279,7)"/>
</svg>
